<svg width="267" height="57" viewBox="0 0 267 57" fill="none" xmlns="http://www.w3.org/2000/svg">
<path d="M9.84 50L16.38 17.42H3.48L5.4 8H43.02L41.1 17.42H28.26L21.72 50H9.84ZM50.0447 50.54C47.7247 50.54 45.5047 49.96 43.3847 48.8C41.2647 47.64 39.5447 45.96 38.2247 43.76C36.9447 41.56 36.3047 38.88 36.3047 35.72C36.3047 33 36.7647 30.5 37.6847 28.22C38.6047 25.94 39.8647 23.96 41.4647 22.28C43.1047 20.6 44.9847 19.3 47.1047 18.38C49.2647 17.42 51.5447 16.94 53.9447 16.94C56.5847 16.94 58.8447 17.46 60.7247 18.5C62.6447 19.5 64.0447 21.14 64.9247 23.42C65.8047 25.66 66.0047 28.7 65.5247 32.54C65.1647 36.18 64.3047 39.36 62.9447 42.08C61.5847 44.8 59.8247 46.9 57.6647 48.38C55.5047 49.82 52.9647 50.54 50.0447 50.54ZM54.0047 41.36C55.5247 41.36 56.8647 40.98 58.0247 40.22C59.1847 39.46 60.0847 38.4 60.7247 37.04C61.4047 35.68 61.7447 34.1 61.7447 32.3C61.7447 30.42 61.2047 28.92 60.1247 27.8C59.0447 26.64 57.5247 26.06 55.5647 26.06C54.0847 26.06 52.7447 26.46 51.5447 27.26C50.3847 28.02 49.4647 29.08 48.7847 30.44C48.1447 31.8 47.8247 33.38 47.8247 35.18C47.8247 37.06 48.3647 38.56 49.4447 39.68C50.5247 40.8 52.0447 41.36 54.0047 41.36ZM58.8047 50L59.9447 44.54L62.1047 33.8L63.5447 23.06L64.6847 17.48H76.0847L69.6047 50H58.8047Z" fill="#FFFFF0"/>
<path d="M73.2217 50L81.6217 8H99.5617C104.962 8 109.122 9.18 112.042 11.54C115.002 13.9 116.482 17.18 116.482 21.38C116.482 24.9 115.622 27.98 113.902 30.62C112.222 33.22 109.822 35.24 106.702 36.68C103.582 38.12 99.9017 38.84 95.6617 38.84H82.0417L88.3417 33.74L85.1017 50H73.2217ZM99.5617 50L90.9817 34.7H103.282L111.982 50H99.5617ZM88.0417 35.12L83.9017 29.66H96.2017C98.8417 29.66 100.882 29.04 102.322 27.8C103.762 26.56 104.482 24.8 104.482 22.52C104.482 20.76 103.902 19.46 102.742 18.62C101.582 17.78 99.9617 17.36 97.8817 17.36H86.4217L92.7817 11.72L88.0417 35.12ZM117.636 50L126.036 8H137.916L129.516 50H117.636ZM137.968 50L146.368 8H164.608C169.008 8 172.768 8.72 175.888 10.16C179.048 11.6 181.468 13.64 183.148 16.28C184.828 18.88 185.668 22 185.668 25.64C185.668 29.36 185.028 32.72 183.748 35.72C182.468 38.68 180.668 41.24 178.348 43.4C176.028 45.52 173.268 47.16 170.068 48.32C166.868 49.44 163.328 50 159.448 50H137.968ZM151.768 40.52H159.808C162.808 40.52 165.328 39.9 167.368 38.66C169.408 37.42 170.968 35.74 172.048 33.62C173.128 31.46 173.668 29.04 173.668 26.36C173.668 24.48 173.268 22.88 172.468 21.56C171.708 20.24 170.548 19.24 168.988 18.56C167.468 17.84 165.568 17.48 163.288 17.48H156.328L151.768 40.52ZM203.558 24.26H223.058L221.318 33.14H201.818L203.558 24.26ZM201.098 40.82H223.118L221.198 50H187.538L195.938 8H228.818L226.958 17.18H205.778L201.098 40.82ZM243.511 50.84C241.111 50.84 238.811 50.64 236.611 50.24C234.411 49.88 232.411 49.36 230.611 48.68C228.811 47.96 227.271 47.18 225.991 46.34L230.671 37.46C232.111 38.34 233.591 39.1 235.111 39.74C236.671 40.34 238.251 40.8 239.851 41.12C241.451 41.44 243.051 41.6 244.651 41.6C246.171 41.6 247.471 41.46 248.551 41.18C249.631 40.86 250.451 40.42 251.011 39.86C251.571 39.3 251.851 38.64 251.851 37.88C251.851 37.04 251.471 36.38 250.711 35.9C249.991 35.38 249.031 34.94 247.831 34.58C246.631 34.22 245.291 33.86 243.811 33.5C242.371 33.1 240.911 32.64 239.431 32.12C237.991 31.56 236.671 30.88 235.471 30.08C234.271 29.24 233.291 28.18 232.531 26.9C231.811 25.62 231.451 24.04 231.451 22.16C231.451 19.12 232.271 16.48 233.911 14.24C235.551 12 237.871 10.26 240.871 9.02C243.911 7.78 247.491 7.16 251.611 7.16C254.611 7.16 257.411 7.48 260.011 8.12C262.611 8.72 264.851 9.6 266.731 10.76L262.411 19.58C260.771 18.54 258.951 17.76 256.951 17.24C254.991 16.68 252.971 16.4 250.891 16.4C249.291 16.4 247.911 16.58 246.751 16.94C245.631 17.3 244.771 17.8 244.171 18.44C243.611 19.04 243.331 19.72 243.331 20.48C243.331 21.28 243.691 21.94 244.411 22.46C245.131 22.98 246.091 23.42 247.291 23.78C248.531 24.14 249.871 24.52 251.311 24.92C252.791 25.28 254.251 25.72 255.691 26.24C257.131 26.72 258.471 27.38 259.711 28.22C260.951 29.02 261.931 30.04 262.651 31.28C263.371 32.52 263.731 34.06 263.731 35.9C263.731 38.9 262.911 41.52 261.271 43.76C259.631 46 257.291 47.74 254.251 48.98C251.211 50.22 247.631 50.84 243.511 50.84Z" fill="#FF0000"/>
</svg>
